<svg width="24" height="16" viewBox="0 0 24 16" fill="none" xmlns="http://www.w3.org/2000/svg">
<path d="M24 0.015625H0V15.9841H24V0.015625Z" fill="#F0F0F0"/>
<path d="M24 5.22314H0V10.7772H24V5.22314Z" fill="#0052B4"/>
<path d="M24 10.7769H0V15.9841H24V10.7769Z" fill="#D80027"/>
<path d="M6.06882 4.52881V8.51178C6.06882 10.7775 9.03446 11.4716 9.03446 11.4716C9.03446 11.4716 12 10.7774 12 8.51178V4.52881H6.06882Z" fill="#F0F0F0"/>
<path d="M6.84967 4.64551V8.479C6.84967 8.735 6.90662 8.97678 7.0195 9.20345C8.13934 9.20345 9.8132 9.20345 11.0493 9.20345C11.1622 8.97683 11.2192 8.73505 11.2192 8.479V4.64551H6.84967Z" fill="#D80027"/>
<path d="M10.3735 7.31816H9.36917V6.64994H10.0387V5.98173H9.36917V5.31348H8.69966V5.98173H8.03019V6.64994H8.69966V7.31816H7.69531V7.98641H8.69966V8.65462H9.36917V7.98641H10.3735V7.31816Z" fill="#F0F0F0"/>
<path d="M7.93275 10.1362C8.36419 10.4068 8.80743 10.564 9.0344 10.6338C9.26137 10.5639 9.70462 10.4068 10.1361 10.1362C10.5712 9.86335 10.8762 9.55116 11.0494 9.20342C10.8584 9.06854 10.6253 8.98901 10.3735 8.98901C10.2818 8.98901 10.1928 8.99987 10.1072 9.01975C9.92573 8.60824 9.51384 8.3208 9.0345 8.3208C8.55511 8.3208 8.14326 8.60824 7.96181 9.01975C7.87617 8.99987 7.78706 8.98901 7.69547 8.98901C7.44365 8.98901 7.21059 9.06859 7.01962 9.20342C7.19264 9.55116 7.49765 9.86335 7.93275 10.1362Z" fill="#0052B4"/>
</svg>
