<svg width="24" height="16" viewBox="0 0 24 16" fill="none" xmlns="http://www.w3.org/2000/svg">
<g clip-path="url(#clip0_1764_57)">
<path d="M0 0H24V16.0002H0V0Z" fill="#FFDA44"/>
<path d="M17.9941 16L12 7.82607L13.2575 16H17.9941ZM6.26086 0L12 7.82607L10.796 0H6.26086ZM10.7424 16L12 7.82607L6.00581 16H10.7424ZM0 0V5.97985L12 7.82607L1.32811 0H0ZM0 16H0.853687L12 7.82607L0 9.6722V16ZM12 7.82607L24 5.97985V0H22.672L12 7.82607ZM13.204 0L12 7.82607L17.7391 0H13.204ZM24 16V9.67224L12 7.82607L23.1463 16H24Z" fill="#D80027"/>
<path d="M12 10.6079C13.5367 10.6079 14.7824 9.36213 14.7824 7.82542C14.7824 6.28872 13.5367 5.04297 12 5.04297C10.4633 5.04297 9.21753 6.28872 9.21753 7.82542C9.21753 9.36213 10.4633 10.6079 12 10.6079Z" fill="#D80027"/>
<path d="M12.0001 9.91222C13.1527 9.91222 14.087 8.97785 14.087 7.82525C14.087 6.67265 13.1527 5.73828 12.0001 5.73828C10.8475 5.73828 9.91309 6.67265 9.91309 7.82525C9.91309 8.97785 10.8475 9.91222 12.0001 9.91222Z" fill="#FFDA44"/>
</g>
<defs>
<clipPath id="clip0_1764_57">
<rect width="24" height="16" fill="white"/>
</clipPath>
</defs>
</svg>
