<svg  viewBox="0 0 512 512" width="50" height="50" fill="#35be70" xmlns="http://www.w3.org/2000/svg"><path d="m135.875 372.207031c-.425781-1.039062-1.054688-1.984375-1.851562-2.78125l-17.066407-17.066406c-3.347656-3.234375-8.667969-3.1875-11.960937.101563-3.292969 3.292968-3.339844 8.617187-.105469 11.964843l2.5 2.5h-13.523437c-4.714844 0-8.535157 3.820313-8.535157 8.53125 0 4.714844 3.820313 8.535157 8.535157 8.535157h13.535156l-2.503906 2.5c-2.214844 2.140624-3.105469 5.316406-2.324219 8.296874.78125 2.984376 3.109375 5.316407 6.09375 6.097657 2.984375.777343 6.15625-.109375 8.296875-2.328125l17.066406-17.066406c2.445312-2.441407 3.175781-6.113282 1.855469-9.300782zm0 0"/><path d="m25.601562 512h460.796876c14.140624 0 25.601562-11.460938 25.601562-25.601562v-460.796876c0-14.140624-11.460938-25.601562-25.601562-25.601562h-460.796876c-14.140624 0-25.601562 11.460938-25.601562 25.601562v460.796876c0 14.140624 11.460938 25.601562 25.601562 25.601562zm-8.535156-426.667969h477.867188v341.335938h-477.867188zm477.867188 401.066407c0 4.714843-3.820313 8.535156-8.535156 8.535156h-460.796876c-4.714843 0-8.535156-3.820313-8.535156-8.535156v-42.664063h477.867188zm-469.332032-469.332032h460.796876c4.714843 0 8.535156 3.820313 8.535156 8.535156v42.664063h-477.867188v-42.664063c0-4.714843 3.820313-8.535156 8.535156-8.535156zm0 0"/><path d="m51.199219 42.667969c0 4.710937-3.820313 8.53125-8.53125 8.53125-4.714844 0-8.535157-3.820313-8.535157-8.53125 0-4.714844 3.820313-8.535157 8.535157-8.535157 4.710937 0 8.53125 3.820313 8.53125 8.535157zm0 0"/><path d="m85.332031 42.667969c0 4.710937-3.820312 8.53125-8.53125 8.53125-4.714843 0-8.535156-3.820313-8.535156-8.53125 0-4.714844 3.820313-8.535157 8.535156-8.535157 4.710938 0 8.53125 3.820313 8.53125 8.535157zm0 0"/><path d="m119.464844 42.667969c0 4.710937-3.820313 8.53125-8.53125 8.53125-4.714844 0-8.535156-3.820313-8.535156-8.53125 0-4.714844 3.820312-8.535157 8.535156-8.535157 4.710937 0 8.53125 3.820313 8.53125 8.535157zm0 0"/><path d="m42.667969 145.066406h9.742187c3.878906 15.023438 17.40625 25.542969 32.921875 25.601563h68.269531c15.515626-.058594 29.039063-10.578125 32.921876-25.601563h19.488281c3.878906 15.023438 17.40625 25.542969 32.921875 25.601563h68.265625c15.519531-.058594 29.042969-10.578125 32.921875-25.601563h9.746094c4.710937 0 8.53125-3.820312 8.53125-8.53125 0-4.714844-3.820313-8.535156-8.53125-8.535156h-9.746094c-3.878906-15.023438-17.402344-25.542969-32.921875-25.601562h-68.265625c-15.515625.058593-29.042969 10.578124-32.921875 25.601562h-19.488281c-3.882813-15.023438-17.40625-25.542969-32.921876-25.601562h-68.269531c-15.515625.058593-29.042969 10.578124-32.921875 25.601562h-9.742187c-4.714844 0-8.535157 3.820312-8.535157 8.535156 0 4.710938 3.820313 8.53125 8.535157 8.53125zm196.265625-25.601562h68.265625c6.070312.019531 11.671875 3.273437 14.695312 8.535156h-6.160156c-4.714844 0-8.535156 3.820312-8.535156 8.535156 0 4.710938 3.820312 8.53125 8.535156 8.53125h6.160156c-3.023437 5.261719-8.625 8.515625-14.695312 8.535156h-68.265625c-6.070313-.019531-11.671875-3.273437-14.695313-8.535156h6.160157c4.714843 0 8.535156-3.820312 8.535156-8.53125 0-4.714844-3.820313-8.535156-8.535156-8.535156h-6.160157c3.023438-5.261719 8.625-8.515625 14.695313-8.535156zm-153.601563 0h68.269531c6.070313.019531 11.667969 3.273437 14.691407 8.535156h-6.160157c-4.710937 0-8.53125 3.820312-8.53125 8.535156 0 4.710938 3.820313 8.53125 8.53125 8.53125h6.160157c-3.023438 5.261719-8.621094 8.515625-14.691407 8.535156h-68.269531c-6.070312-.019531-11.667969-3.273437-14.691406-8.535156h6.160156c4.710938 0 8.53125-3.820312 8.53125-8.53125 0-4.714844-3.820312-8.535156-8.53125-8.535156h-6.160156c3.023437-5.261719 8.621094-8.515625 14.691406-8.535156zm0 0"/><path d="m469.332031 366.933594h-9.742187c-3.878906-15.023438-17.40625-25.542969-32.921875-25.601563h-68.269531c-15.515626.058594-29.039063 10.578125-32.921876 25.601563h-19.488281c-3.878906-15.023438-17.40625-25.542969-32.921875-25.601563h-68.265625c-15.519531.058594-29.042969 10.578125-32.921875 25.601563h-9.746094c-4.710937 0-8.53125 3.820312-8.53125 8.53125 0 4.714844 3.820313 8.535156 8.53125 8.535156h9.746094c3.878906 15.023438 17.402344 25.542969 32.921875 25.601562h68.265625c15.515625-.058593 29.042969-10.578124 32.921875-25.601562h19.488281c3.882813 15.023438 17.40625 25.542969 32.921876 25.601562h68.269531c15.515625-.058593 29.042969-10.578124 32.921875-25.601562h9.742187c4.714844 0 8.535157-3.820312 8.535157-8.535156 0-4.710938-3.820313-8.53125-8.535157-8.53125zm-196.265625 25.601562h-68.265625c-6.070312-.019531-11.671875-3.273437-14.695312-8.535156h6.160156c4.714844 0 8.535156-3.820312 8.535156-8.535156 0-4.710938-3.820312-8.53125-8.535156-8.53125h-6.160156c3.023437-5.261719 8.625-8.515625 14.695312-8.535156h68.265625c6.070313.019531 11.671875 3.273437 14.695313 8.535156h-6.160157c-4.714843 0-8.535156 3.820312-8.535156 8.53125 0 4.714844 3.820313 8.535156 8.535156 8.535156h6.160157c-3.023438 5.261719-8.625 8.515625-14.695313 8.535156zm153.601563 0h-68.269531c-6.070313-.019531-11.667969-3.273437-14.691407-8.535156h6.160157c4.710937 0 8.53125-3.820312 8.53125-8.535156 0-4.710938-3.820313-8.53125-8.53125-8.53125h-6.160157c3.023438-5.261719 8.621094-8.515625 14.691407-8.535156h68.269531c6.070312.019531 11.667969 3.273437 14.691406 8.535156h-6.160156c-4.710938 0-8.53125 3.820312-8.53125 8.53125 0 4.714844 3.820312 8.535156 8.53125 8.535156h6.160156c-3.023437 5.261719-8.621094 8.515625-14.691406 8.535156zm0 0"/><path d="m460.800781 290.132812c0-4.710937-3.820312-8.53125-8.535156-8.53125-4.710937 0-8.53125 3.820313-8.53125 8.53125v13.535157l-2.5-2.5c-3.347656-3.234375-8.671875-3.1875-11.964844.101562-3.289062 3.292969-3.335937 8.617188-.101562 11.964844l17.066406 17.066406c3.332031 3.332031 8.734375 3.332031 12.066406 0l17.066407-17.066406c3.234374-3.347656 3.1875-8.671875-.105469-11.964844-3.289063-3.289062-8.613281-3.335937-11.960938-.101562l-2.5 2.5zm0 0"/><path d="m443.734375 256c0 4.710938 3.820313 8.535156 8.53125 8.535156 4.714844 0 8.535156-3.824218 8.535156-8.535156v-17.066406c0-4.714844-3.820312-8.535156-8.535156-8.535156-4.710937 0-8.53125 3.820312-8.53125 8.535156zm0 0"/><path d="m452.265625 213.332031c4.714844 0 8.535156-3.820312 8.535156-8.53125v-17.066406c0-4.714844-3.820312-8.535156-8.535156-8.535156-4.710937 0-8.53125 3.820312-8.53125 8.535156v17.066406c0 4.710938 3.820313 8.53125 8.53125 8.53125zm0 0"/><path d="m384 145.066406h51.199219c4.714843 0 8.535156 3.820313 8.535156 8.535156 0 4.710938 3.820313 8.53125 8.53125 8.53125 4.714844 0 8.535156-3.820312 8.535156-8.53125 0-14.140624-11.460937-25.601562-25.601562-25.601562h-51.199219c-4.710938 0-8.535156 3.820312-8.535156 8.535156 0 4.710938 3.824218 8.53125 8.535156 8.53125zm0 0"/><path d="m59.734375 366.933594c-4.714844 0-8.535156-3.820313-8.535156-8.535156 0-4.710938-3.820313-8.53125-8.53125-8.53125-4.714844 0-8.535157 3.820312-8.535157 8.53125 0 14.140624 11.460938 25.601562 25.601563 25.601562 4.710937 0 8.53125-3.820312 8.53125-8.535156 0-4.710938-3.820313-8.53125-8.53125-8.53125zm0 0"/><path d="m42.667969 332.800781c4.710937 0 8.53125-3.820312 8.53125-8.535156v-17.066406c0-4.710938-3.820313-8.53125-8.53125-8.53125-4.714844 0-8.535157 3.820312-8.535157 8.53125v17.066406c0 4.714844 3.820313 8.535156 8.535157 8.535156zm0 0"/><path d="m42.667969 281.601562c4.710937 0 8.53125-3.820312 8.53125-8.535156v-17.066406c0-4.710938-3.820313-8.535156-8.53125-8.535156-4.714844 0-8.535157 3.824218-8.535157 8.535156v17.066406c0 4.714844 3.820313 8.535156 8.535157 8.535156zm0 0"/><path d="m42.667969 230.398438c4.710937 0 8.53125-3.820313 8.53125-8.53125v-17.066407c0-4.714843-3.820313-8.535156-8.53125-8.535156-4.714844 0-8.535157 3.820313-8.535157 8.535156v17.066407c0 4.710937 3.820313 8.53125 8.535157 8.53125zm0 0"/><path d="m264.378906 203.1875c-.535156-2.78125-2.414062-5.113281-5.015625-6.230469l-59.734375-25.597656c-2.980468-1.277344-6.425781-.757813-8.894531 1.347656-2.46875 2.101563-3.53125 5.421875-2.746094 8.566407l17.066407 68.265624c.742187 2.976563 3.023437 5.324219 5.976562 6.152344.75.207032 1.523438.308594 2.300781.308594 2.265625 0 4.433594-.898438 6.035157-2.5l15.300781-15.300781 15.300781 15.300781c3.347656 3.234375 8.667969 3.1875 11.960938-.105469 3.292968-3.289062 3.335937-8.613281.101562-11.960937l-15.296875-15.300782 15.296875-15.300781c2.003906-2 2.882812-4.863281 2.347656-7.644531zm-46.421875 27.589844-9.238281-36.960938 32.332031 13.859375zm0 0"/><path d="m162.132812 196.265625c0-4.710937-3.820312-8.53125-8.53125-8.53125h-17.066406c-4.714844 0-8.535156 3.820313-8.535156 8.53125 0 4.714844 3.820312 8.535156 8.535156 8.535156h17.066406c4.710938 0 8.53125-3.820312 8.53125-8.535156zm0 0"/><path d="m159.632812 236.433594 8.535157-8.535156c3.230469-3.347657 3.1875-8.667969-.105469-11.960938s-8.613281-3.335938-11.960938-.105469l-8.535156 8.535157c-2.21875 2.140624-3.105468 5.316406-2.328125 8.296874.78125 2.984376 3.113281 5.316407 6.097657 6.097657 2.980468.777343 6.15625-.109375 8.296874-2.328125zm0 0"/></svg>