<svg width="15" height="15" viewBox="0 0 15 15" fill="none" xmlns="http://www.w3.org/2000/svg">
<g clip-path="url(#clip0)">
<path d="M13.4897 6.90775C13.039 7.41356 12.5976 7.95844 12.2895 8.7102C12.1493 9.05736 11.816 9.28268 11.4412 9.28268C11.0641 9.28268 10.7308 9.05736 10.5883 8.70792C10.2319 7.83425 9.69159 7.23883 9.1674 6.66405C9.03637 6.51922 8.90531 6.37437 8.77659 6.22493C8.7697 6.22724 8.76504 6.22954 8.75821 6.23182C8.24781 6.38584 7.85465 7.06177 8.09147 7.61126C8.2524 7.98829 9.38125 7.91704 9.2847 8.72859C9.20424 9.393 10.0732 9.56773 10.3813 9.53557C10.6894 9.49878 11.163 10.0414 10.9239 10.2805C10.6871 10.5196 10.2388 10.5288 10.3077 11.1449C10.3261 11.3242 10.8687 11.3013 10.8687 11.5726C10.8687 11.8461 10.5883 12.1565 10.8044 12.4715C10.8504 12.5404 10.8986 12.5933 10.9492 12.6347C9.91004 13.5911 8.5237 14.1774 7.00402 14.1774C3.79223 14.1774 1.18049 11.5656 1.18049 8.35385C1.18049 7.37908 1.42191 6.45942 1.84723 5.65015C1.84492 6.69623 2.4036 7.56528 2.66568 7.82736C3.52093 8.6803 4.76014 8.41131 4.91875 9.12631C5.07968 9.83903 4.06808 9.84133 4.13477 10.3862C4.20372 10.9334 5.5211 11.0782 5.22683 11.5817C4.83828 12.2507 5.48892 12.299 5.30041 13.1243C5.19926 13.575 5.84987 13.6623 6.09129 13.3198C6.27522 13.0577 6.23843 12.7358 6.60857 12.3427C7.06149 11.8599 8.11218 11.7817 7.9949 10.9839C7.7949 9.65969 6.50742 9.45275 5.94644 9.14236C5.3096 8.79292 5.46595 7.95376 5.32799 7.55373C5.13487 6.98586 4.47963 7.71238 4.13017 7.38131C3.55541 6.83873 4.23362 6.07084 4.71642 6.08694C5.7349 6.11913 6.04757 7.11003 6.4223 7.07552C6.78786 7.04334 7.02468 6.53295 7.08904 6.26167C7.2247 5.67082 6.85914 5.9352 6.71201 5.62712C6.51428 5.2156 7.40632 4.82246 7.75117 4.51898C7.80406 4.473 7.84313 4.42932 7.86382 4.38792C7.96732 4.18562 7.83166 4.03158 7.60174 3.89133C7.14196 3.61312 6.30279 3.39243 6.26372 2.95792C6.24071 2.69121 6.75112 2.56248 7.33276 2.53949C7.42931 2.5441 7.52357 2.55329 7.62017 2.56248C7.66843 2.28888 7.74659 2.01988 7.85235 1.76241C7.57416 1.72562 7.29139 1.70721 7.00399 1.70721C3.33928 1.70721 0.357422 4.68908 0.357422 8.35378C0.357397 12.0186 3.33928 15.0005 7.00399 15.0005C10.6687 15.0005 13.6506 12.0186 13.6506 8.35388C13.6506 7.85729 13.5954 7.37219 13.4897 6.90775ZM11.1284 0.0152522C9.25215 0.192605 7.96705 2.01067 8.29453 3.86667C8.62708 5.75199 10.3654 6.33231 11.228 8.44859C11.3058 8.6393 11.5743 8.64025 11.652 8.44952C12.6082 6.10231 14.6415 5.64425 14.6415 3.20182C14.6415 1.33091 13.0366 -0.165115 11.1284 0.0152522ZM11.4402 4.89246C10.5064 4.89246 9.74951 4.13555 9.74951 3.20182C9.74951 2.26812 10.5064 1.51121 11.4402 1.51121C12.3739 1.51121 13.1308 2.26812 13.1308 3.20182C13.1308 4.13552 12.3738 4.89246 11.4402 4.89246Z" fill="#35BE70"/>
</g>
<defs>
<clipPath id="clip0">
<rect width="15" height="15" fill="white"/>
</clipPath>
</defs>
</svg>
