<svg width="138" height="380" fill="none" xmlns="http://www.w3.org/2000/svg"><path stroke="#98DBAF" stroke-width="2" stroke-linecap="round" d="M84.05 4.95l-7.07 7.071M84.05 12.021L76.98 4.95"/><path fill-rule="evenodd" clip-rule="evenodd" d="M78.918 119.623c2.256-3.025 6.265-6.005 13.432-5.583 7.108.418 10.586 4.188 12.342 7.854.341.713.617 1.423.841 2.106h2.094a19.947 19.947 0 00-1.131-2.97c-2.012-4.199-6.068-8.518-14.028-8.986-7.901-.465-12.534 2.871-15.153 6.383a18.335 18.335 0 00-2.93 6.017c-.448.003-1.068.02-1.803.072-1.517.107-3.551.364-5.56.975-1.997.608-4.058 1.593-5.537 3.212-1.514 1.658-2.345 3.906-1.977 6.844.344 2.756 1.043 4.876 2.068 6.497a8.98 8.98 0 003.904 3.426c1.512.703 3.192 1.037 4.911 1.23 1.238.138 2.548.207 3.857.275.495.026.99.052 1.481.082 3.695.224 15.252.334 26.546.279 5.654-.028 11.257-.097 15.795-.215 4.504-.117 8.043-.283 9.508-.518 1.526-.244 2.685-.761 3.538-1.485a5.136 5.136 0 001.605-2.483c.442-1.471.249-2.997.157-3.727-.013-.104-.024-.192-.031-.261a10.791 10.791 0 00-.88-3.294c-.587-1.292-1.575-2.67-3.215-3.485-1.075-.534-2.28-.593-3.399-.449-1.125.145-2.245.507-3.219.906a21.61 21.61 0 00-2.457 1.206l-.005.003a21.483 21.483 0 00-.89-1.666c-.831-1.402-2.121-3.185-3.776-3.992-2-.975-3.675-1.231-5.006-1.141v2.007c.976-.092 2.346.062 4.13.932 1.085.529 2.122 1.848 2.932 3.214a19.902 19.902 0 011.211 2.414l.014.035.003.007.001.001v.001l.455 1.159 1.033-.696h.001l.001-.001.009-.006.042-.028.174-.11a19.586 19.586 0 012.888-1.489c.881-.361 1.824-.657 2.715-.772.897-.116 1.66-.038 2.253.256 1.099.546 1.818 1.495 2.285 2.522.468 1.03.651 2.07.71 2.665.011.111.026.233.041.362.091.768.216 1.824-.092 2.852a3.14 3.14 0 01-.984 1.533c-.519.44-1.315.836-2.56 1.035-1.304.209-4.69.375-9.244.494-4.519.117-10.106.186-15.753.214-11.31.055-22.798-.056-26.415-.275-.53-.032-1.047-.06-1.554-.086h-.002c-1.285-.068-2.506-.132-3.68-.263-1.626-.182-3.062-.484-4.291-1.056a6.979 6.979 0 01-3.056-2.681c-.824-1.301-1.455-3.115-1.775-5.677-.297-2.38.367-4.038 1.47-5.246 1.14-1.248 2.818-2.092 4.643-2.647 1.814-.552 3.686-.793 5.118-.894.713-.05 1.31-.065 1.725-.068a20.583 20.583 0 01.6.006l.029.001h.006l.033-.779.009.002.987.162v-.002l.004-.02.018-.095c.017-.086.045-.217.087-.387a16.326 16.326 0 012.697-5.708zM125.503 351.623c-2.255-3.025-6.265-6.005-13.432-5.583-7.108.418-10.586 4.187-12.342 7.854a17.504 17.504 0 00-.84 2.106h-2.095c.277-.942.644-1.951 1.132-2.97 2.01-4.2 6.067-8.518 14.027-8.987 7.901-.464 12.534 2.872 15.153 6.384a18.333 18.333 0 012.93 6.016c.448.004 1.069.021 1.803.073 1.517.107 3.551.364 5.56.975 1.997.608 4.058 1.593 5.537 3.212 1.514 1.658 2.345 3.906 1.978 6.843-.345 2.757-1.043 4.877-2.069 6.498a8.978 8.978 0 01-3.904 3.426c-1.512.703-3.192 1.037-4.911 1.229-1.238.139-2.548.208-3.856.276h-.001c-.495.026-.99.052-1.481.082-3.695.224-15.252.334-26.546.279-5.654-.028-11.257-.097-15.795-.215-4.504-.117-8.043-.283-9.508-.518-1.526-.244-2.684-.761-3.537-1.485a5.137 5.137 0 01-1.606-2.483c-.442-1.471-.25-2.997-.157-3.727.013-.104.024-.192.031-.261.073-.735.294-2.005.88-3.294.588-1.292 1.575-2.67 3.216-3.485 1.074-.534 2.279-.593 3.398-.449 1.125.145 2.245.507 3.219.906a21.64 21.64 0 012.457 1.206l.005.003c.224-.467.524-1.05.89-1.666.831-1.402 2.12-3.185 3.776-3.992 2-.975 3.675-1.231 5.006-1.141v2.007c-.976-.092-2.346.062-4.13.932-1.085.529-2.122 1.848-2.932 3.214a19.87 19.87 0 00-1.211 2.414l-.014.035-.003.007v.002l-.456 1.159-1.033-.696-.002-.001-.01-.006-.041-.028-.174-.111a19.667 19.667 0 00-2.888-1.488c-.88-.361-1.824-.657-2.715-.772-.897-.116-1.66-.038-2.252.256-1.1.546-1.819 1.495-2.286 2.522a8.829 8.829 0 00-.71 2.665c-.011.111-.025.232-.04.362-.092.768-.217 1.824.091 2.852.17.567.47 1.096.985 1.533.518.439 1.314.836 2.559 1.035 1.304.209 4.69.375 9.244.493 4.519.118 10.107.187 15.753.215 11.309.055 22.798-.056 26.415-.275.529-.032 1.047-.06 1.555-.086h.001c1.286-.068 2.506-.132 3.68-.263 1.626-.182 3.062-.484 4.292-1.056a6.978 6.978 0 003.056-2.681c.823-1.301 1.454-3.115 1.774-5.677.298-2.38-.367-4.038-1.47-5.247-1.139-1.247-2.818-2.091-4.643-2.646-1.814-.552-3.686-.793-5.118-.894a27.703 27.703 0 00-1.725-.068 20.526 20.526 0 00-.6.006l-.029.001h-.007l-.032-.779-.009.001c-.987.162-.986.163-.986.163l-.001-.002-.003-.02-.019-.095a8.55 8.55 0 00-.087-.387 16.31 16.31 0 00-2.697-5.708z" fill="#98DBAF"/><path stroke="#98DBAF" stroke-width="2" stroke-linecap="round" d="M261 9H82M250 259H1"/></svg>