<svg width="15" height="15" viewBox="0 0 15 15" fill="none" xmlns="http://www.w3.org/2000/svg">
<path d="M12.1875 1.17188C12.1875 1.10971 12.1628 1.0501 12.1189 1.00615C12.0749 0.962193 12.0153 0.9375 11.9531 0.9375H3.04688C2.98471 0.9375 2.9251 0.962193 2.88115 1.00615C2.83719 1.0501 2.8125 1.10971 2.8125 1.17188V2.34375H12.1875V1.17188ZM3.75 1.875H3.51562C3.45346 1.875 3.39385 1.85031 3.3499 1.80635C3.30594 1.7624 3.28125 1.70279 3.28125 1.64062C3.28125 1.57846 3.30594 1.51885 3.3499 1.4749C3.39385 1.43094 3.45346 1.40625 3.51562 1.40625H3.75C3.81216 1.40625 3.87177 1.43094 3.91573 1.4749C3.95968 1.51885 3.98438 1.57846 3.98438 1.64062C3.98438 1.70279 3.95968 1.7624 3.91573 1.80635C3.87177 1.85031 3.81216 1.875 3.75 1.875ZM4.6875 1.875H4.45312C4.39096 1.875 4.33135 1.85031 4.2874 1.80635C4.24344 1.7624 4.21875 1.70279 4.21875 1.64062C4.21875 1.57846 4.24344 1.51885 4.2874 1.4749C4.33135 1.43094 4.39096 1.40625 4.45312 1.40625H4.6875C4.74966 1.40625 4.80927 1.43094 4.85323 1.4749C4.89718 1.51885 4.92188 1.57846 4.92188 1.64062C4.92188 1.70279 4.89718 1.7624 4.85323 1.80635C4.80927 1.85031 4.74966 1.875 4.6875 1.875ZM5.625 1.875H5.39062C5.32846 1.875 5.26885 1.85031 5.2249 1.80635C5.18094 1.7624 5.15625 1.70279 5.15625 1.64062C5.15625 1.57846 5.18094 1.51885 5.2249 1.4749C5.26885 1.43094 5.32846 1.40625 5.39062 1.40625H5.625C5.68716 1.40625 5.74677 1.43094 5.79073 1.4749C5.83468 1.51885 5.85938 1.57846 5.85938 1.64062C5.85938 1.70279 5.83468 1.7624 5.79073 1.80635C5.74677 1.85031 5.68716 1.875 5.625 1.875ZM11.4844 1.875H7.26562C7.20346 1.875 7.14385 1.85031 7.0999 1.80635C7.05594 1.7624 7.03125 1.70279 7.03125 1.64062C7.03125 1.57846 7.05594 1.51885 7.0999 1.4749C7.14385 1.43094 7.20346 1.40625 7.26562 1.40625H11.4844C11.5465 1.40625 11.6061 1.43094 11.6501 1.4749C11.6941 1.51885 11.7188 1.57846 11.7188 1.64062C11.7188 1.70279 11.6941 1.7624 11.6501 1.80635C11.6061 1.85031 11.5465 1.875 11.4844 1.875Z" fill="#35BE70"/>
<path d="M2.8125 9.375H12.1875V2.8125H2.8125V9.375ZM7.5 3.28125C8.05626 3.28125 8.60003 3.4462 9.06254 3.75524C9.52505 4.06428 9.88554 4.50354 10.0984 5.01745C10.3113 5.53137 10.367 6.09687 10.2585 6.64244C10.1499 7.18801 9.88207 7.68915 9.48874 8.08249C9.0954 8.47582 8.59426 8.74369 8.04869 8.85221C7.50312 8.96073 6.93762 8.90503 6.4237 8.69216C5.90979 8.47929 5.47053 8.1188 5.16149 7.65629C4.85245 7.19378 4.6875 6.65001 4.6875 6.09375C4.68831 5.34808 4.98488 4.63317 5.51215 4.1059C6.03942 3.57863 6.75433 3.28206 7.5 3.28125V3.28125Z" fill="#35BE70"/>
<path d="M2.10938 3.75C2.04721 3.75 1.9876 3.77469 1.94365 3.81865C1.89969 3.8626 1.875 3.92221 1.875 3.98438V10.3125H13.125V3.98438C13.125 3.92221 13.1003 3.8626 13.0564 3.81865C13.0124 3.77469 12.9528 3.75 12.8906 3.75H12.6562V9.60938C12.6562 9.67154 12.6316 9.73115 12.5876 9.7751C12.5436 9.81906 12.484 9.84375 12.4219 9.84375H2.57812C2.51596 9.84375 2.45635 9.81906 2.4124 9.7751C2.36844 9.73115 2.34375 9.67154 2.34375 9.60938V3.75H2.10938Z" fill="#35BE70"/>
<path d="M7.5 8.43749C7.96355 8.43749 8.41668 8.30004 8.80211 8.0425C9.18754 7.78497 9.48794 7.41892 9.66534 6.99066C9.84273 6.5624 9.88914 6.09115 9.79871 5.63651C9.70827 5.18186 9.48505 4.76425 9.15727 4.43647C8.8295 4.10869 8.41188 3.88547 7.95724 3.79504C7.5026 3.7046 7.03135 3.75102 6.60308 3.92841C6.17482 4.1058 5.80878 4.4062 5.55124 4.79163C5.29371 5.17706 5.15625 5.6302 5.15625 6.09375C5.15693 6.71514 5.40408 7.31088 5.84347 7.75027C6.28286 8.18966 6.87861 8.43681 7.5 8.43749ZM7.26562 4.45313C7.26562 4.39097 7.29031 4.33135 7.33427 4.2874C7.37822 4.24344 7.43784 4.21875 7.5 4.21875C7.56216 4.21875 7.62177 4.24344 7.66572 4.2874C7.70968 4.33135 7.73437 4.39097 7.73437 4.45313V6.5625C7.73437 6.62466 7.70968 6.68427 7.66572 6.72822C7.62177 6.77218 7.56216 6.79687 7.5 6.79687C7.43784 6.79687 7.37822 6.77218 7.33427 6.72822C7.29031 6.68427 7.26562 6.62466 7.26562 6.5625V4.45313ZM7.26562 7.49999C7.26562 7.43783 7.29031 7.37822 7.33427 7.33427C7.37822 7.29031 7.43784 7.26562 7.5 7.26562C7.56216 7.26562 7.62177 7.29031 7.66572 7.33427C7.70968 7.37822 7.73437 7.43783 7.73437 7.49999V7.73437C7.73437 7.79653 7.70968 7.85614 7.66572 7.9001C7.62177 7.94405 7.56216 7.96874 7.5 7.96874C7.43784 7.96874 7.37822 7.94405 7.33427 7.9001C7.29031 7.85614 7.26562 7.79653 7.26562 7.73437V7.49999Z" fill="#35BE70"/>
<path d="M5.67668 13.125L5.86652 12.3649C5.87922 12.3142 5.90849 12.2693 5.94968 12.2371C5.99087 12.205 6.04162 12.1875 6.09387 12.1875H8.90637C8.95862 12.1875 9.00937 12.205 9.05056 12.2371C9.09175 12.2693 9.12102 12.3142 9.13371 12.3649L9.32355 13.125H13.9719L13.1905 10.7812H1.80973L1.02832 13.125H5.67668ZM12.422 11.25H12.8907V11.7188H12.422V11.25ZM12.422 12.1875H12.8907V12.6562H12.422V12.1875ZM11.4845 11.25H11.9532V11.7188H11.4845V11.25ZM11.4845 12.1875H11.9532V12.6562H11.4845V12.1875ZM9.60949 11.25H10.0782V11.7188H9.60949V11.25ZM9.60949 12.1875H11.0157V12.6562H9.60949V12.1875ZM8.67199 11.25H9.14074V11.7188H8.67199V11.25ZM7.73449 11.25H8.20324V11.7188H7.73449V11.25ZM6.79699 11.25H7.26574V11.7188H6.79699V11.25ZM5.85949 11.25H6.32824V11.7188H5.85949V11.25ZM4.92199 11.25H5.39074V11.7188H4.92199V11.25ZM3.98449 11.25H4.45324V11.7188H3.98449V11.25ZM3.98449 12.1875H5.39074V12.6562H3.98449V12.1875ZM3.04699 11.25H3.51574V11.7188H3.04699V11.25ZM3.04699 12.1875H3.51574V12.6562H3.04699V12.1875ZM2.10949 11.25H2.57824V11.7188H2.10949V11.25ZM2.10949 12.1875H2.57824V12.6562H2.10949V12.1875Z" fill="#35BE70"/>
<path d="M6.15967 13.125H8.84044L8.72325 12.6562H6.27686L6.15967 13.125Z" fill="#35BE70"/>
<path d="M0.9375 13.8281C0.9375 13.8903 0.962193 13.9499 1.00615 13.9939C1.0501 14.0378 1.10971 14.0625 1.17188 14.0625H13.8281C13.8903 14.0625 13.9499 14.0378 13.9939 13.9939C14.0378 13.9499 14.0625 13.8903 14.0625 13.8281V13.5938H0.9375V13.8281Z" fill="#35BE70"/>
</svg>
