<svg width="40" height="40" fill="none" xmlns="http://www.w3.org/2000/svg"><rect x="13.538" y="13.45" width="13.016" height="1.149" rx=".574" fill="#35BE70"/><rect x="13.538" y="16.512" width="13.016" height="1.149" rx=".574" fill="#35BE70"/><rect x="13.538" y="19.575" width="13.016" height="1.149" rx=".574" fill="#35BE70"/><rect x="13.538" y="22.638" width="13.016" height="1.149" rx=".574" fill="#35BE70"/><path d="M25.103 5H12.098c-.905 0-1.883.719-1.883 1.867v26.139c0 .805.736 1.855 1.907 1.855h16.153c1.026 0 1.847-.887 1.847-1.855V10.929M25.103 5l5.02 5.929M25.102 5v4.583c0 .673.625 1.346 1.194 1.346h3.825" stroke="#35BE70" stroke-width="1.5"/><path d="M7.918 8.828L6.265 7.082H3.479" stroke="#35BE70" stroke-width="1.5" stroke-linecap="round" stroke-linejoin="round"/><circle r="1.164" transform="matrix(-1 0 0 1 1.914 7.02)" stroke="#35BE70" stroke-width="1.5"/><path d="M7.918 31.033L6.265 32.94H3.479" stroke="#35BE70" stroke-width="1.5" stroke-linecap="round" stroke-linejoin="round"/><circle cx="1.914" cy="33.001" r="1.164" transform="rotate(-180 1.914 33.001)" stroke="#35BE70" stroke-width="1.5"/><circle cx="2.175" cy="19.064" r="1.164" stroke="#35BE70" stroke-width="1.5"/><path d="M3.787 19.302h4.13M31.653 9.977l1.914-2.13h2.786" stroke="#35BE70" stroke-width="1.5" stroke-linecap="round" stroke-linejoin="round"/><circle cx="38.086" cy="7.786" r="1.164" stroke="#35BE70" stroke-width="1.5"/><path d="M31.653 31.798l1.914 1.907h2.298" stroke="#35BE70" stroke-width="1.5" stroke-linecap="round" stroke-linejoin="round"/><circle r="1.164" transform="matrix(1 0 0 -1 37.32 33.767)" stroke="#35BE70" stroke-width="1.5"/><circle r="1.164" transform="matrix(-1 0 0 1 37.657 19.83)" stroke="#35BE70" stroke-width="1.5"/><path d="M31.654 20.068h4.594" stroke="#35BE70" stroke-width="1.5" stroke-linecap="round" stroke-linejoin="round"/></svg>