<svg width="40" height="40" fill="none" xmlns="http://www.w3.org/2000/svg"><path d="M11.09 7.614c-.313-.404-1.006-.535-1.508-.56-1.117-.057-1.62.616-2.68 1.68-.894.898-1.62 1.57-1.732 2.635 0 1.177 1.229 2.522 1.899 3.643-.358.538-.67 1.401-.782 2.018l-3.016.56c-.804.224-1.452 1.121-1.507 1.57l.055 3.81c0 .45.28.954.503 1.234.698.875 2.792 1.065 4.077 1.345.089.403.558 1.625.781 1.962l-1.675 2.578c-.313.583-.447 1.457-.167 1.905L6.9 33.788c.849.986 1.899 1.737 2.625 1.737 1.005 0 2.792-1.401 3.685-1.905.224.134 1.508.84 1.955.84l.447 2.578C15.836 38.271 16.953 39 17.51 39h3.295a2.52 2.52 0 001.508-.504c1.06-.785 1.005-3.083 1.284-4.036.447-.134 1.526-.616 2.01-.84l2.625 1.793c.536.359 1.62.336 2.178-.112l2.792-2.802c.58-.673.516-1.906.279-2.242-.54-.766-1.664-2.377-1.843-2.69.134-.135.614-1.364.838-1.962l2.736-.505C36.375 24.877 37 23.924 37 23.308v-3.643c0-2.522-3.295-2.13-4.523-2.466-.134-.404-.614-1.55-.838-2.074 1.284-1.793 2.107-2.578 2.01-3.643-.089-.986-.837-1.806-1.73-2.634-.727-.673-1.508-1.681-2.625-1.681-.581 0-1.322.299-1.62.448m-16.585 0c.559-4.091 4.68-6.569 6.199-6.614.447-.013.837.247.837.785v4.932c0 .393.402.785.67.785h1.117c.391 0 .782-.56.782-.785V1.785c0-.336.268-.785.894-.785 1.284 0 5.472 2.467 6.086 6.614m-16.585 0c-.447 3.318.335 5.436 2.569 7.734m14.016-7.734a8.904 8.904 0 01-2.76 7.734m0 0c-.502.474-1.085.926-1.763 1.345V27.75m1.763-12.4a7.995 7.995 0 012.258 5.548c0 2.996-1.574 5.545-4.02 6.852m-9.494-12.4c-1.061 1.12-2.234 2.746-2.234 5.548 0 2.973 1.67 5.547 4.133 6.86m-1.899-12.409c.558.575 1.564 1.177 1.899 1.345v11.065m7.594-.009c-1.123.6-2.43.938-3.853.938a7.925 7.925 0 01-3.741-.93" stroke="#35BE70" stroke-width="1.5" stroke-linejoin="round"/></svg>