<svg width="40" height="40" fill="none" xmlns="http://www.w3.org/2000/svg"><path d="M22.076 39c-.628-1.047-2.3-3.412-3.965-4.499-2.082-1.358-2.824-3.367-2.938-3.848m0 0h-2.795c-.742 0-1.712-.792-1.712-1.754v-1.641m4.507 3.395h9.812c.799 0 1.797-.736 1.797-1.754v-7.781c-.361-.047-1.22-.725-1.768-3.056-.548-2.332.228-4.742 1.768-5.178M10.666 27.258l-1.454-.85c-.998-.65-.884-1.923-.428-2.602.21-.312.599-.844.941-.934m.941 4.386c.822.384 2.031-.028 2.482-.82.627-1.104.428-1.982 0-2.378m-3.423-1.188L8.5 22.108c-.685-.481-.763-1.471-.171-2.547.17-.31.53-.786.827-.877m.57 4.188l3.423 1.188m-3.993-5.376c-.6-.311-1.569-1.245-.6-2.886.856-1.386 1.997-1.075 1.997-1.075m-1.397 3.961c1.188.377 3.736 1.217 4.42 1.556m-3.023-5.517l-2.937-1.698c-.77-.452-.793-1.94-.2-2.8.507-.737 1.569-1.167 2.367-.736l.884.48m-.114 4.754l.114.057m0-4.81V2.697c0-.595.742-1.698 1.826-1.698h12.664c.6 0 1.626.77 1.626 1.698v10.186M10.666 9.969v4.81m16.116-1.895c.466-.132 1.477-.08 1.797 1.188.4 1.585.941 3.622 1.968 5.291 1.027 1.67 1.112 5.037 1.112 5.405 0 .368-.2 3.537-.2 4.499 0 .962.343 2.66 1.541 4.527M10.666 14.78l3.48 1.924c.628.367.884 1.528.285 2.575-.194.339-.536.803-.855.962m0 0c1.14.565 1.266 1.782.627 2.8-.285.456-.667.906-1.055 1.02" stroke="#35BE70" stroke-width="1.5" stroke-linecap="round" stroke-linejoin="round"/><rect x="15" y="1" width="8" height="2" rx="1" fill="#35BE70"/><circle cx="19" cy="26" r="1" fill="#35BE70"/><path d="M23.243 10.272a.753.753 0 01-.536-.224 5.251 5.251 0 00-7.414 0 .76.76 0 01-1.072 0 .76.76 0 010-1.071 6.764 6.764 0 019.558 0 .76.76 0 01-.536 1.295z" fill="#35BE70"/><path d="M21.192 12.32a.753.753 0 01-.536-.223A2.33 2.33 0 0019 11.412a2.33 2.33 0 00-1.656.685.76.76 0 01-1.071 0 .76.76 0 010-1.072A3.831 3.831 0 0119 9.896c1.031 0 2 .401 2.727 1.132a.756.756 0 01-.536 1.292zM19 14.767a1.011 1.011 0 100-2.023 1.011 1.011 0 000 2.023z" fill="#35BE70"/></svg>