<svg width="40" height="40" fill="none" xmlns="http://www.w3.org/2000/svg"><path d="M17.406 20.227a.577.577 0 00.094-.82c-4.188-5.298-5.07-8.727-5.07-10.673 0-4.164 3.39-7.554 7.554-7.554s7.555 3.39 7.555 7.554c0 5.149-5.922 11.813-7.555 13.555a35.402 35.402 0 01-.812-.89.583.583 0 00-.828-.047.583.583 0 00-.047.828c.758.851 1.258 1.351 1.273 1.375a.585.585 0 00.828 0c.336-.336 8.313-8.39 8.313-14.82C28.719 3.914 24.805 0 19.992 0c-4.812 0-8.734 3.914-8.734 8.727 0 3.867 2.898 8.335 5.32 11.398a.595.595 0 00.828.102z" fill="#35BE70"/><path d="M33.14 25.047h-.913a12.53 12.53 0 00-4.352-7.219.593.593 0 00-.828.086.593.593 0 00.086.828 11.277 11.277 0 013.898 6.305h-.398c-.672 0-1.211.547-1.211 1.21v.665h-6.969v-.664c0-.672-.547-1.211-1.21-1.211h-2.509c-.672 0-1.21.547-1.21 1.21v.665h-6.97v-.664c0-.672-.546-1.211-1.21-1.211h-.399a11.278 11.278 0 013.899-6.305c.25-.203.289-.57.086-.828a.592.592 0 00-.828-.086 12.425 12.425 0 00-4.352 7.219h-.914c-.672 0-1.211.547-1.211 1.21v2.509c0 .672.547 1.21 1.21 1.21h.915a12.525 12.525 0 004.094 7A12.514 12.514 0 0019.992 40a12.481 12.481 0 0012.242-10.023h.914c.672 0 1.211-.547 1.211-1.211v-2.508a1.224 1.224 0 00-1.218-1.211zm-14.445 1.219c0-.024.016-.04.04-.04h2.507c.024 0 .04.016.04.04v2.507c0 .024-.016.04-.04.04h-2.508c-.023 0-.039-.016-.039-.04v-2.507zm-11.898 2.5v-2.508c0-.024.016-.04.039-.04h2.508c.023 0 .039.016.039.04v2.508c0 .023-.016.039-.04.039H6.837c-.024 0-.04-.016-.04-.04zm20.57 7.32a11.314 11.314 0 01-14.765 0 11.296 11.296 0 01-3.665-6.11h.399c.672 0 1.21-.546 1.21-1.21v-.664h6.97v.664c0 .672.547 1.21 1.21 1.21h2.508c.672 0 1.211-.546 1.211-1.21v-.664h6.97v.664c0 .672.546 1.21 1.21 1.21h.398a11.236 11.236 0 01-3.656 6.11zm5.813-7.32c0 .023-.016.039-.04.039h-2.507c-.024 0-.04-.016-.04-.04v-2.507c0-.024.016-.04.04-.04h2.508c.023 0 .039.016.039.04v2.508zM16.898 6.219v5.633c0 .32.266.585.586.585a.59.59 0 00.586-.585V6.219a.585.585 0 10-1.172 0zM20.578 11.86V9.937h.977a2.152 2.152 0 002.148-2.149 2.152 2.152 0 00-2.148-2.148h-1.563a.59.59 0 00-.586.586v5.632c0 .32.266.586.586.586a.59.59 0 00.586-.586zm0-5.055h.977a.977.977 0 010 1.953h-.977V6.805z" fill="#35BE70"/></svg>