<svg width="203" height="738" viewBox="0 0 203 738" fill="none" xmlns="http://www.w3.org/2000/svg">
<line x1="57.9499" y1="657.95" x2="65.0209" y2="665.021" stroke="#98DBAF" stroke-width="2" stroke-linecap="round"/>
<line x1="57.9497" y1="665.021" x2="65.0208" y2="657.95" stroke="#98DBAF" stroke-width="2" stroke-linecap="round"/>
<line x1="109.95" y1="208.95" x2="117.021" y2="216.021" stroke="#98DBAF" stroke-width="2" stroke-linecap="round"/>
<line x1="109.95" y1="216.021" x2="117.021" y2="208.95" stroke="#98DBAF" stroke-width="2" stroke-linecap="round"/>
<line x1="20.9499" y1="4.94971" x2="28.0209" y2="12.0208" stroke="#98DBAF" stroke-width="2" stroke-linecap="round"/>
<line x1="20.9497" y1="12.0207" x2="28.0208" y2="4.94965" stroke="#98DBAF" stroke-width="2" stroke-linecap="round"/>
<path fill-rule="evenodd" clip-rule="evenodd" d="M115.082 323.623C112.826 320.598 108.817 317.618 101.65 318.04C94.5422 318.458 91.0641 322.227 89.3083 325.894C88.967 326.607 88.6907 327.317 88.4669 328H86.373C86.6496 327.058 87.0167 326.049 87.5044 325.03C89.5156 320.83 93.5717 316.512 101.532 316.043C109.433 315.579 114.066 318.915 116.685 322.427C117.979 324.162 118.769 325.92 119.236 327.241C119.398 327.698 119.522 328.105 119.615 328.443C120.063 328.447 120.683 328.464 121.418 328.516C122.935 328.623 124.969 328.88 126.977 329.491C128.975 330.099 131.036 331.084 132.514 332.703C134.028 334.361 134.86 336.609 134.493 339.546C134.148 342.303 133.449 344.423 132.424 346.044C131.389 347.68 130.052 348.758 128.52 349.47C127.008 350.173 125.328 350.507 123.609 350.699C122.371 350.838 121.061 350.907 119.752 350.975L119.752 350.975C119.257 351.001 118.762 351.027 118.271 351.057C114.576 351.281 103.018 351.391 91.7254 351.336C86.0709 351.308 80.4681 351.239 75.9298 351.121C71.4264 351.004 67.8872 350.838 66.4217 350.603C64.8963 350.359 63.7374 349.842 62.8844 349.118C62.0282 348.391 61.5407 347.508 61.2787 346.635C60.8374 345.164 61.0297 343.638 61.1218 342.908C61.1348 342.804 61.1459 342.716 61.1528 342.647C61.2263 341.912 61.4465 340.642 62.0327 339.353C62.6203 338.061 63.6081 336.683 65.2483 335.868C66.3226 335.334 67.5278 335.275 68.6471 335.419C69.7721 335.564 70.8922 335.926 71.8655 336.325C72.8438 336.726 73.7066 337.18 74.323 337.531L74.3279 337.534C74.5522 337.067 74.8521 336.484 75.2176 335.868C76.0491 334.466 77.3387 332.683 78.9938 331.876C80.9941 330.901 82.6685 330.645 84 330.735V332.742C83.0241 332.65 81.6541 332.804 79.8702 333.674C78.7851 334.203 77.748 335.522 76.9378 336.888C76.5486 337.544 76.2391 338.164 76.0269 338.62C75.9211 338.847 75.8403 339.032 75.7865 339.158C75.7597 339.222 75.7396 339.27 75.7266 339.302L75.7125 339.337L75.7095 339.344L75.7093 339.345L75.7092 339.345L75.7091 339.346L75.7091 339.346L75.2536 340.505L74.2206 339.809L74.2206 339.809L74.2204 339.809L74.2201 339.809L74.219 339.808L74.2098 339.802L74.1676 339.774C74.1292 339.749 74.0706 339.712 73.9939 339.663C73.8403 339.567 73.6146 339.43 73.3324 339.269C72.7662 338.946 71.9827 338.535 71.1063 338.175C70.2249 337.814 69.2821 337.518 68.3911 337.403C67.4944 337.287 66.7307 337.365 66.1384 337.659C65.0387 338.205 64.3203 339.154 63.8533 340.181C63.385 341.21 63.2024 342.251 63.1429 342.846C63.1317 342.957 63.1174 343.078 63.1021 343.208L63.1021 343.208L63.1021 343.208C63.0111 343.976 62.8861 345.032 63.1943 346.06C63.3643 346.627 63.6636 347.156 64.1784 347.593C64.6965 348.032 65.4931 348.429 66.7377 348.628C68.042 348.837 71.4276 349.003 75.9817 349.121C80.5009 349.239 86.0884 349.308 91.7352 349.336C103.044 349.391 114.533 349.28 118.15 349.061C118.679 349.029 119.197 349.001 119.704 348.975L119.706 348.975H119.706C120.991 348.907 122.212 348.843 123.386 348.712C125.012 348.53 126.448 348.228 127.678 347.656C128.888 347.094 129.92 346.261 130.734 344.975C131.557 343.674 132.188 341.86 132.508 339.298C132.806 336.918 132.141 335.26 131.037 334.051C129.898 332.804 128.22 331.96 126.395 331.405C124.581 330.853 122.709 330.612 121.277 330.511C120.564 330.461 119.968 330.446 119.552 330.443C119.344 330.442 119.182 330.444 119.074 330.446C119.019 330.447 118.978 330.448 118.952 330.449L118.923 330.45L118.917 330.45L118.916 330.45C118.917 330.45 118.917 330.45 118.884 329.671L118.875 329.672C117.888 329.834 117.888 329.835 117.888 329.835L117.888 329.833L117.884 329.813C117.881 329.793 117.875 329.762 117.866 329.718C117.849 329.632 117.821 329.501 117.779 329.331C117.696 328.991 117.56 328.499 117.351 327.908C116.931 326.722 116.226 325.156 115.082 323.623Z" fill="#98DBAF"/>
<path fill-rule="evenodd" clip-rule="evenodd" d="M68.4968 555.623C70.7524 552.598 74.7618 549.618 81.9291 550.04C89.0367 550.458 92.5147 554.227 94.2706 557.894C94.6118 558.607 94.8882 559.317 95.1119 560H97.2058C96.9293 559.058 96.5622 558.049 96.0744 557.03C94.0632 552.83 90.0072 548.512 82.0466 548.043C74.1457 547.579 69.513 550.915 66.8936 554.427C65.5997 556.162 64.8097 557.92 64.3426 559.241C64.181 559.698 64.0572 560.105 63.9642 560.443C63.516 560.447 62.8955 560.464 62.1613 560.516C60.6435 560.623 58.6099 560.88 56.6014 561.491C54.6041 562.099 52.543 563.084 51.0644 564.703C49.5504 566.361 48.7191 568.609 49.0864 571.546C49.4309 574.303 50.1294 576.423 51.1552 578.044C52.1901 579.68 53.5272 580.758 55.0586 581.47C56.5709 582.173 58.2512 582.507 59.9703 582.699C61.2075 582.838 62.5181 582.907 63.8265 582.975L63.8267 582.975C64.3221 583.001 64.8173 583.027 65.308 583.057C69.0031 583.281 80.5604 583.391 91.8535 583.336C97.5079 583.308 103.111 583.239 107.649 583.121C112.152 583.004 115.692 582.838 117.157 582.603C118.683 582.359 119.841 581.842 120.694 581.118C121.551 580.391 122.038 579.508 122.3 578.635C122.741 577.164 122.549 575.638 122.457 574.908C122.444 574.804 122.433 574.716 122.426 574.647C122.353 573.912 122.132 572.642 121.546 571.353C120.959 570.061 119.971 568.683 118.331 567.868C117.256 567.334 116.051 567.275 114.932 567.419C113.807 567.564 112.687 567.926 111.713 568.325C110.735 568.726 109.872 569.18 109.256 569.531L109.251 569.534C109.027 569.067 108.727 568.484 108.361 567.868C107.53 566.466 106.24 564.683 104.585 563.876C102.585 562.901 100.91 562.645 99.5789 562.735V564.742C100.555 564.65 101.925 564.804 103.709 565.674C104.794 566.203 105.831 567.522 106.641 568.888C107.03 569.544 107.34 570.164 107.552 570.62C107.658 570.847 107.739 571.032 107.792 571.158C107.819 571.222 107.839 571.27 107.852 571.302L107.866 571.337L107.869 571.344L107.87 571.345L107.87 571.345L107.87 571.346L107.87 571.346L108.325 572.505L109.358 571.809L109.358 571.809L109.358 571.809L109.359 571.809L109.36 571.808L109.369 571.802L109.411 571.774C109.45 571.749 109.508 571.712 109.585 571.663C109.739 571.567 109.964 571.43 110.246 571.269C110.813 570.946 111.596 570.535 112.473 570.175C113.354 569.814 114.297 569.518 115.188 569.403C116.084 569.287 116.848 569.365 117.44 569.659C118.54 570.205 119.259 571.154 119.726 572.181C120.194 573.21 120.376 574.251 120.436 574.846C120.447 574.957 120.461 575.078 120.477 575.208L120.477 575.208L120.477 575.208C120.568 575.976 120.693 577.032 120.385 578.06C120.215 578.627 119.915 579.156 119.4 579.593C118.882 580.032 118.086 580.429 116.841 580.628C115.537 580.837 112.151 581.003 107.597 581.121C103.078 581.239 97.4904 581.308 91.8437 581.336C80.5346 581.391 69.0463 581.28 65.429 581.061C64.8998 581.029 64.382 581.001 63.8744 580.975L63.8729 580.975H63.8728C62.5874 580.907 61.3671 580.843 60.1925 580.712C58.567 580.53 57.1311 580.228 55.9013 579.656C54.6905 579.094 53.6593 578.261 52.8453 576.975C52.0222 575.674 51.3911 573.86 51.0709 571.298C50.7734 568.918 51.4378 567.26 52.5414 566.051C53.6804 564.804 55.3586 563.96 57.1837 563.405C58.9977 562.853 60.8696 562.612 62.3018 562.511C63.0146 562.461 63.6109 562.446 64.0267 562.443C64.2344 562.442 64.3967 562.444 64.5053 562.446C64.5596 562.447 64.6005 562.448 64.627 562.449L64.6557 562.45L64.6617 562.45L64.6625 562.45C64.6623 562.45 64.6621 562.45 64.6945 561.671L64.7037 561.672C65.6906 561.834 65.6905 561.835 65.6904 561.835L65.6908 561.833L65.6944 561.813C65.6979 561.793 65.7039 561.762 65.7126 561.718C65.73 561.632 65.7582 561.501 65.7997 561.331C65.8829 560.991 66.0191 560.499 66.2282 559.908C66.6475 558.722 67.3532 557.156 68.4968 555.623Z" fill="#98DBAF"/>
<line x1="-4" y1="83" x2="49" y2="83" stroke="#98DBAF" stroke-width="2" stroke-linecap="round"/>
<line x1="-67" y1="213" x2="112" y2="213" stroke="#98DBAF" stroke-width="2" stroke-linecap="round"/>
<line x1="-56" y1="463" x2="193" y2="463" stroke="#98DBAF" stroke-width="2" stroke-linecap="round"/>
<line x1="-141" y1="662" x2="60" y2="662" stroke="#98DBAF" stroke-width="2" stroke-linecap="round"/>
<circle cx="54" cy="83" r="4" stroke="#98DBAF" stroke-width="2"/>
<circle cx="25" cy="733" r="4" stroke="#98DBAF" stroke-width="2"/>
<circle cx="198" cy="463" r="4" stroke="#98DBAF" stroke-width="2"/>
</svg>
