<svg width="24" height="16" viewBox="0 0 24 16" fill="none" xmlns="http://www.w3.org/2000/svg">
<g clip-path="url(#clip0_4942_56677)">
<path d="M23.5862 15.9867H0.413813C0.185297 15.9867 0 15.7985 0 15.5663V0.43332C0 0.201177 0.185297 0.0129395 0.413813 0.0129395H23.5862C23.8148 0.0129395 24 0.201177 24 0.43332V15.5663C24 15.7985 23.8147 15.9867 23.5862 15.9867Z" fill="#41479B"/>
<path d="M24 2.95575H0V13.0443H24V2.95575Z" fill="#F5F5F5"/>
<path d="M14.1505 8.00004L15.2255 6.10856H13.0756L12.0004 4.2168L10.9253 6.10856H8.77539L9.85037 8.00004L8.77539 9.89151H10.9253L12.0004 11.7833L13.0756 9.89151H15.2255L14.1505 8.00004ZM14.1708 6.72718L13.799 7.38146L13.4271 6.72718H14.1708ZM13.4474 8.00004L12.724 9.27289H11.2768L10.5535 8.00004L11.2769 6.72718H12.724L13.4474 8.00004ZM12.0004 5.45404L12.3724 6.10861H11.6284L12.0004 5.45404ZM9.83003 6.72718H10.5737L10.2018 7.38146L9.83003 6.72718ZM9.83003 9.27289L10.2019 8.61861L10.5737 9.27289H9.83003ZM12.0004 10.546L11.6284 9.89146H12.3724L12.0004 10.546ZM13.799 8.61861L14.1708 9.27289H13.4272L13.799 8.61861Z" fill="#41479B"/>
</g>
<defs>
<clipPath id="clip0_4942_56677">
<rect width="24" height="16" fill="white"/>
</clipPath>
</defs>
</svg>
