<svg width="24" height="17" viewBox="0 0 24 17" fill="none" xmlns="http://www.w3.org/2000/svg">
<g clip-path="url(#clip0_4150_30782)">
<path d="M0 0.989258H24V16.9894H0V0.989258Z" fill="#0052B4"/>
<path d="M0 0.989258H24V6.32246H0V0.989258Z" fill="#D80027"/>
<path d="M0 11.6558H24V16.989H0V11.6558Z" fill="white"/>
<path d="M6.06885 5.51074V9.50149C6.06885 11.7716 9.03449 12.4671 9.03449 12.4671C9.03449 12.4671 12 11.7715 12 9.50149V5.51074H6.06885V5.51074Z" fill="#D80027"/>
<path d="M7.29534 6.20655H10.7735V4.81525L10.0778 5.16307L9.03436 4.11963L7.99096 5.16307L7.29534 4.81525V6.20655ZM11.3044 10.0572L9.04354 7.79641L6.78271 10.0572L7.52057 10.7951L9.04354 9.27208L10.5665 10.7951L11.3044 10.0572Z" fill="#FFDA44"/>
<path d="M11.3044 7.94569H10.2495C10.311 7.84011 10.3433 7.72013 10.3433 7.59797C10.3433 7.21378 10.0318 6.90234 9.64767 6.90234C9.38221 6.90234 9.15168 7.05103 9.0344 7.26966C8.91712 7.05108 8.68654 6.90234 8.42114 6.90234C8.037 6.90234 7.72551 7.21378 7.72551 7.59797C7.72551 7.72481 7.76001 7.84336 7.81931 7.94569H6.78271C6.78271 8.32987 7.11736 8.64131 7.5015 8.64131H7.47834C7.47834 9.0255 7.78978 9.33694 8.17397 9.33694C8.17397 9.67711 8.41823 9.95972 8.74087 10.0202L8.19271 11.2577C8.46287 11.3676 8.75179 11.4241 9.04345 11.4239C9.33511 11.4241 9.62403 11.3676 9.89418 11.2577L9.34603 10.0202C9.66867 9.95972 9.91293 9.67711 9.91293 9.33694C10.2971 9.33694 10.6086 9.0255 10.6086 8.64131H10.5854C10.9697 8.64131 11.3044 8.32987 11.3044 7.94569V7.94569Z" fill="white"/>
</g>
<defs>
<clipPath id="clip0_4150_30782">
<rect width="24" height="16" fill="white" transform="translate(0 0.989258)"/>
</clipPath>
</defs>
</svg>
