<svg width="24" height="16" viewBox="0 0 24 16" fill="none" xmlns="http://www.w3.org/2000/svg">
<path d="M0 0H24V16H0V0Z" fill="white"/>
<path d="M6.62926 7.23894C6.62926 7.23894 6.63862 10.3781 10.124 10.2939L10.3345 10.9442H10.7509C10.7509 10.9442 10.4047 9.0214 13.5626 9.00269C13.5626 9.00269 13.5626 7.71146 14.8538 7.71146H16.7953C16.7953 7.71146 13.7076 5.28807 19.5509 2.19099L19.6351 1.57812C19.6351 1.57812 13.5579 4.89976 10.3298 4.25415C10.3298 4.25415 10.8304 6.24245 9.82458 6.24245C9.31932 6.24245 9.37078 5.86351 8.31347 5.86351C7.43862 5.86351 7.50412 6.78514 7.08306 6.77579C6.66669 6.76643 6.20353 6.20035 6.1661 6.29859C6.13336 6.39684 6.62926 7.23894 6.62926 7.23894V7.23894Z" fill="#DB7D00"/>
<path d="M11.097 14.4122C11.4199 14.1783 11.7052 14.1034 12.145 14.0239C12.5848 13.9444 13.0526 13.8181 13.2959 13.7526C13.5392 13.6871 12.4678 14.0613 12.1965 14.1409C11.9251 14.2157 11.097 14.4122 11.097 14.4122ZM12.8701 13.7245C12.7813 13.1678 13.0011 12.5876 13.5017 12.3537C13.6187 12.7561 13.2584 13.4391 12.8701 13.7245ZM13.7216 13.4344C13.4503 12.9759 13.9087 12.3771 14.2409 12.0871C14.3953 12.3678 14.1239 13.1958 13.7216 13.4344ZM14.5123 13.0789C14.2222 12.6859 14.5637 11.9935 14.9239 11.7221C15.069 12.1058 14.9286 12.8075 14.5123 13.0789ZM15.3029 12.583C15.0409 12.2087 15.2234 11.6286 15.5976 11.2543C15.869 11.5631 15.6397 12.2368 15.3029 12.583ZM15.9345 12.0824C15.7146 11.7315 15.9859 10.8941 16.3368 10.6602C16.4912 10.9689 16.3742 11.8485 15.9345 12.0824ZM16.4397 11.9514C16.3742 11.4461 17.2538 10.8894 17.6187 10.9034C17.5766 11.3198 17.2023 11.7736 16.4397 11.9514ZM15.9485 12.5221C16.3602 12.0964 17.1649 12.0964 17.4503 12.1853C17.3707 12.4333 16.4257 12.9759 15.9485 12.5221Z" fill="#006651"/>
<path d="M15.3777 12.9479C15.9578 12.7935 16.3368 12.6625 16.683 13.0274C16.4397 13.3362 15.4947 13.2473 15.3777 12.9479ZM14.5496 13.3221C15.1064 13.0227 15.7801 13.4625 15.883 13.7245C15.2608 13.9818 14.5403 13.3876 14.5496 13.3221ZM13.7871 13.7526C14.2923 13.5607 14.8725 13.8181 15.1064 14.1034C14.835 14.2297 14.1239 14.3701 13.7871 13.7526ZM13.09 13.9724C13.6701 13.9069 14.2315 14.3467 14.3532 14.5993C13.6093 14.6695 13.3239 14.4496 13.09 13.9724ZM12.9029 14.4122C12.5801 14.1783 12.2947 14.1034 11.8549 14.0239C11.4151 13.9444 10.9473 13.8181 10.704 13.7526C10.4561 13.6871 11.5321 14.0613 11.8034 14.1409C12.0748 14.2157 12.9029 14.4122 12.9029 14.4122ZM11.1298 13.7245C11.2187 13.1678 10.9988 12.5876 10.4982 12.3537C10.3812 12.7561 10.7415 13.4391 11.1298 13.7245ZM10.2783 13.4344C10.5496 12.9759 10.0912 12.3771 9.759 12.0871C9.60462 12.3678 9.87596 13.1958 10.2783 13.4344ZM9.48766 13.0789C9.77772 12.6859 9.4362 11.9935 9.07596 11.7221C8.93093 12.1058 9.07128 12.8075 9.48766 13.0789ZM8.69701 12.583C8.959 12.2087 8.77655 11.6286 8.40228 11.2543C8.13093 11.5631 8.36017 12.2368 8.69701 12.583ZM8.06544 12.0824C8.28532 11.7315 8.01397 10.8941 7.6631 10.6602C7.50871 10.9689 7.62567 11.8485 8.06544 12.0824ZM7.56017 11.9514C7.62567 11.4461 6.74614 10.8894 6.38123 10.9034C6.42333 11.3198 6.7976 11.7736 7.56017 11.9514ZM8.0514 12.5221C7.63971 12.0964 6.83503 12.0964 6.54965 12.1853C6.62918 12.4333 7.57421 12.9759 8.0514 12.5221Z" fill="#006651"/>
<path d="M8.62216 12.9484C8.04204 12.794 7.66309 12.663 7.31689 13.0279C7.56017 13.3367 8.5052 13.2478 8.62216 12.9484ZM9.45023 13.3227C8.8935 13.0233 8.21982 13.463 8.11689 13.725C8.73912 13.9823 9.45959 13.3882 9.45023 13.3227ZM10.2128 13.7531C9.70754 13.5613 9.12742 13.8186 8.8935 14.104C9.16485 14.2303 9.87596 14.3706 10.2128 13.7531ZM10.9099 13.973C10.3298 13.9075 9.76836 14.3472 9.64672 14.5999C10.3906 14.67 10.676 14.4502 10.9099 13.973Z" fill="#006651"/>
</svg>
