<svg width="15" height="15" viewBox="0 0 15 15" fill="none" xmlns="http://www.w3.org/2000/svg">
<path d="M10.0467 0H4.97926C4.11775 0 3.38574 0.702457 3.38574 1.56373V13.4381C3.38574 14.2993 4.10226 15 4.96377 15L10.0395 14.9945C10.9009 14.9945 11.6057 14.2937 11.6057 13.4323L11.613 1.56289C11.6129 0.698525 10.9117 0 10.0467 0ZM6.78091 0.937522H8.25111C8.38026 0.937522 8.48546 1.04237 8.48546 1.17187C8.48546 1.30138 8.38026 1.40622 8.25111 1.40622H6.78091C6.6514 1.40622 6.54656 1.30138 6.54656 1.17187C6.54656 1.04237 6.6514 0.937522 6.78091 0.937522ZM5.89748 1.0121C5.98433 0.92537 6.14243 0.924178 6.22917 1.0121C6.27265 1.05547 6.29839 1.11635 6.29839 1.17855C6.29839 1.23955 6.27265 1.30031 6.22917 1.34379C6.18592 1.38728 6.1248 1.4129 6.06392 1.4129C6.00185 1.4129 5.94216 1.38728 5.89748 1.34379C5.85423 1.30043 5.82957 1.23955 5.82957 1.17855C5.82945 1.11635 5.85423 1.05547 5.89748 1.0121ZM7.46871 14.5355C7.08198 14.5355 6.76745 14.2207 6.76745 13.8341C6.76745 13.4474 7.08198 13.1327 7.46871 13.1327C7.85544 13.1327 8.16998 13.4474 8.16998 13.8341C8.16998 14.2207 7.85533 14.5355 7.46871 14.5355ZM10.8856 12.656H4.20603V2.22663H10.8856V12.656Z" fill="#35BE70"/>
</svg>
