<svg width="24" height="16" viewBox="0 0 24 16" fill="none" xmlns="http://www.w3.org/2000/svg">
<path d="M0 0H24V15.9997H0V0Z" fill="#D80027"/>
<path d="M9.21755 0V15.9997H0V0H9.21755Z" fill="#6DA544"/>
<path d="M9.21753 11C10.8744 11 12.2175 9.65686 12.2175 8C12.2175 6.34315 10.8744 5 9.21753 5C7.56068 5 6.21753 6.34315 6.21753 8C6.21753 9.65686 7.56068 11 9.21753 11Z" fill="#FFDA44"/>
<path d="M7.52991 6.5V8.37505C7.52991 9.30702 8.28544 10.0626 9.21741 10.0626C10.1494 10.0626 10.9049 9.30702 10.9049 8.37505V6.5H7.52991Z" fill="#D80027"/>
<path d="M9.21741 8.9375C8.90724 8.9375 8.65491 8.68517 8.65491 8.375V7.625H9.77995V8.375C9.77991 8.68513 9.52753 8.9375 9.21741 8.9375Z" fill="white"/>
</svg>
